<svg id="caldera-globe" xmlns="http://www.w3.org/2000/svg" viewBox="0 0 499.23742 572.8009"><defs><style>.cls-1{fill:#fff;}.cls-2{fill:#404041;}.cls-3{fill:#00a69c;}.cls-4{fill:#0e4c45;}.cls-5{fill:#a2bd61;}.cls-6{fill:#f1f1f2;}.cls-7{fill:#7e923c;}.cls-8{fill:#e6e7e8;}</style></defs><title>globe-with-calderaforms</title><path class="cls-1" d="M249.358,490.92091a243.38828,243.38828,0,0,1-172.103-415.49,243.389,243.389,0,1,1,344.206,344.202,241.796,241.796,0,0,1-172.103,71.288" transform="translate(-0.38129 -3.14448)"/><path class="cls-2" d="M249.358,5.14448a242.45213,242.45213,0,0,1,94.348,465.729A242.45156,242.45156,0,0,1,155.01,24.19154,240.86769,240.86769,0,0,1,249.358,5.14448m0-2c-134.972,0-244.39,109.416-244.39,244.387s109.418,244.389,244.39,244.389,244.39-109.418,244.39-244.389S384.33,3.14448,249.358,3.14448" transform="translate(-0.38129 -3.14448)"/><path class="cls-2" d="M395.78875,101.00294s-14.742-18.408-17.35-26.227c-2.602-7.817-36.482,29.007-40.392,28.834-3.907-.16705,0,3.742-6.515,8.955-6.514,5.21-61.244,31.346-61.244,31.346l-21.582-13.103-14.899,13.103-87.101,28.03-6.956,1.267-8.564-12.076h.792a2.18078,2.18078,0,0,0,1.914-1.194,2.15865,2.15865,0,0,0-.159-2.235l-7.3-10.328a2.20148,2.20148,0,0,0,.973-.942,2.17069,2.17069,0,0,0-.149-2.241l-6.608-9.324a2.13477,2.13477,0,0,0-3.497,0l-6.611,9.324a2.15889,2.15889,0,0,0-.14105,2.241,2.12485,2.12485,0,0,0,.969.942l-7.296,10.314a2.18361,2.18361,0,0,0,1.746,3.443h.796l-9.531,13.44a2.17652,2.17652,0,0,0,1.751,3.418h14.636l-17.114,3.116v44.821l119.205,70.36,213.696-99.027Z" transform="translate(-0.38129 -3.14448)"/><path class="cls-3" d="M51.32586,245.93952c5.645,34.061,98.588,48.39,207.59595,31.998,109.00806-16.393,192.80707-57.294,187.16907-91.356-5.649-34.061-98.588-48.386-207.596-31.994-109.00806,16.39-192.808,57.291-187.169,91.352" transform="translate(-0.38129 -3.14448)"/><path class="cls-4" d="M104.50152,260.35059c-13.713-9.08-7.315-19.836,3.43994-28.916,10.379-8.754,11.474-6.677,24.69305-9.787,17.466-4.108,21.614-9.04706,34.461-18.47705,16.572-12.157,19.668-21.106,42.819-20.426,17.024.502,20.469,7.783,36.971,3.673q8.955-4.24649,17.908-8.488,14.99551-7.91254,28.468.426c14.798-.296,38.019-4.332,55.96-2.873,4.591,20.411,106.996,4.289,102.503,8.286-34.769,30.913-253.711,151.143-304.186,121.575a117.44182,117.44182,0,0,1-43.037-44.993" transform="translate(-0.38129 -3.14448)"/><path class="cls-5" d="M499.61871,223.30079s-39.09-128.998-49.515-131.605c-10.422-2.606-9.117-36.483-22.15-36.483-13.032,0-37.785,66.452-37.785,66.452s-10.426,52.12-20.851,46.91c-10.421-5.212-27.361,19.545-22.15,35.181s-31.272,42.998-50.81995,23.453c-19.54205-19.544-41.696,13.031-46.906,7.819-5.211-5.213-16.94,5.212-22.15,16.214-5.215,11.006-14.332-.579-19.547-.579-5.21,0-16.939,5.213-45.604-15.59595-28.668-20.804-24.757-1.341-28.668-.117-3.907,1.23-11.725-7.741-15.636-1.224-3.90594,6.514-22.15-14.334-19.542-28.669,2.543-14.001-6.098-30.494-12.576-54.329-.263-13.582-3.538-26.03094-13.138-31.097,1.692.303,3.394.432,5.054.817-6.668-24.45-24.096-46.242-38.428-66.709,2.402,29.538-14.612,47.602-23.264,74.131,4.676.159,9.947-.047,14.566.801-7.925,4.151-2.744,6.189-4.783,13.284-3.641,12.679-6.56,25.004-11.314,37.581-7.004,2.137-13.415,22.449-13.923,31.677a74.81541,74.81541,0,0,0,4.568,29.657,41.2405,41.2405,0,0,0-.741,8.161c0,134.969,109.423,244.387,244.39,244.387,126.767,0,230.983-96.52,243.187-220.075,6.732-29.201,7.726-50.04205,7.726-50.04205" transform="translate(-0.38129 -3.14448)"/><path class="cls-6" d="M185.03576,190.05958c-13.26605,3.692-34.722-4.13495-43.848,8.307,6.021,10.052,59.754,3.00305,71.995,2.772-12.875-.421-22.433,4.058-34.591,6.424-17.117,3.329-36.799,3.976-54.516,3.427-11.766-13.587,22.401-20.195,30.178-22.304,14.867-4.032,87.761-30.801,93.986-18.095-19.495,9.14105-36.877,11.422-58.356,14.826-6.254.99-8.857.33295-13.523,2.878" transform="translate(-0.38129 -3.14448)"/><path class="cls-7" d="M416.55041,86.8711c.503,26.015,3.54395,53.999,15.324,51.269,5.192-1.205,12.358.565,14.714,5.987,8.162,18.761,7.171,37.243,3.055,56.949-1.081,5.159-5.285,7.864-9.886,9.033.861,14.647,3.865,28.252-3.595,42.721-2.044,3.977-6.868,6.517-11.249,6.456-1.229-.016-2.43-.064-3.623-.13-4.06,22.185-9.521,42.621-30.531,56.119-32.984,21.2-77.392,37.773-116.988,36.606-20.842-.613-42.535-4.603-59.99194-16.644-5.55505-3.832-16.301-14.392-23.603-13.559-7.776.889-14.458,5.7-22.392,6.388-31.197,2.705-38.782-27.044-55.321-45.836-8.535,2.953-18.509-1.276-18.514-11.65-.004-20.721,2.012-49.017-8.637-68.605-4.451,1.713-8.996,3.184-13.451,5.149-4.969,2.188-11.893,2.822-15.79-2.034-10.826-13.499-15.766-28.906-19.608-45.11505a227.56879,227.56879,0,0,0-15.21695,82.057c0,125.981,102.12595,228.11,228.112,228.11,125.984,0,228.11-102.129,228.11-228.11a227.27975,227.27975,0,0,0-60.918-155.161" transform="translate(-0.38129 -3.14448)"/><path class="cls-8" d="M191.95965,39.5127s-85.372,19.924-100.762,60.575c-8.39,22.157,39.956-20.615,100.762-60.575" transform="translate(-0.38129 -3.14448)"/><g id="caldera_forms_text" data-name="caldera forms text"><path class="cls-5" d="M25.904,520.68073c7.97949,0,12.708,3.251,15.51563,6.72363l-8.5708,12.19043c-1.25586-1.69922-2.58545-3.251-5.46729-3.251-4.13721,0-6.64941,5.02441-6.64941,11.96973,0,6.79688,2.51221,11.82129,6.72363,11.82129,2.36426,0,4.06348-1.626,5.17187-3.17773l8.93945,11.82129c-3.0293,3.84277-7.53613,7.167-15.66309,7.167-12.56006,0-21.64746-11.15625-21.64746-27.63184C4.25652,531.54205,13.34392,520.68073,25.904,520.68073Z" transform="translate(-0.38129 -3.14448)"/><path class="cls-5" d="M66.90594,567.2276H57.89226l-1.40381,7.24023H40.45574l12.33838-52.30957H72.66863l12.41211,52.30957h-16.771Zm-7.24072-12.41309H64.985l-2.43848-16.99219h-.29541Z" transform="translate(-0.38129 -3.14448)"/><path class="cls-5" d="M88.62273,522.15826H104.8034v37.5332h13.44678v14.77637H88.62273Z" transform="translate(-0.38129 -3.14448)"/><path class="cls-5" d="M122.97478,574.46783V522.15826H139.82c17.14111,0,23.42139,10.93555,23.42139,26.30273,0,15.07227-6.28027,26.00684-23.42139,26.00684Zm17.14111-38.27148h-.96045v24.2334h.96045c4.28516,0,6.94482-4.58008,6.94482-11.96875C147.06072,540.70319,144.40105,536.19635,140.1159,536.19635Z" transform="translate(-0.38129 -3.14448)"/><path class="cls-5" d="M168.85125,522.15826H196.779v14.1123H184.14519v5.24512h11.45166v13.07715H184.14519v5.542h13.59424v14.333H168.85125Z" transform="translate(-0.38129 -3.14448)"/><path class="cls-5" d="M220.049,555.70123h-1.33008v18.7666H203.35125V522.15826H222.7824c12.11719,0,17.6582,6.502,17.6582,16.99316,0,7.09277-3.39844,11.52637-6.27979,13.00391l8.34863,22.3125H225.59Zm-1.33008-20.16992v9.16211H220.049a4.19967,4.19967,0,0,0,4.50684-4.58105c0-3.916-2.51221-4.58105-4.06348-4.58105Z" transform="translate(-0.38129 -3.14448)"/><path class="cls-5" d="M268.65838,567.2276h-9.01367l-1.40332,7.24023H242.20916L254.547,522.15826h19.874l12.41309,52.30957H270.06267Zm-7.24023-12.41309h5.31934L264.3,537.82233h-.2959Z" transform="translate(-0.38129 -3.14448)"/><path class="cls-2" d="M313.38494,527.75885v16.94336h14.3418v5.7959h-14.3418v23.7793h-6.61426V521.66608H328.841v6.09277Z" transform="translate(-0.38129 -3.14448)"/><path class="cls-2" d="M352.61931,575.54108c-11.29492,0-18.05762-11.14648-18.05762-27.64355s6.54-27.49512,18.05762-27.49512c11.2207,0,17.9834,10.998,17.9834,27.49512S363.84,575.54108,352.61931,575.54108Zm0-49.11914c-7.35645,0-10.998,9.51172-10.998,21.47559s3.6416,21.47559,10.998,21.47559c7.208,0,10.92383-9.51172,10.92383-21.47559S359.7531,526.42194,352.61931,526.42194Z" transform="translate(-0.38129 -3.14448)"/><path class="cls-2" d="M401.4406,574.2774l-8.918-23.48242h-6.09277V574.2774h-6.54V521.66608h13.59863c7.6543,0,14.11914,3.93848,14.11914,14.3418,0,8.54492-4.83008,12.63281-8.84277,13.52441l9.80859,24.74512Zm-8.99219-46.96387h-6.01855v18.28027h6.167c5.05371,0,8.39746-3.34375,8.39746-9.28906C400.99431,529.24518,396.68474,527.31354,392.44842,527.31354Z" transform="translate(-0.38129 -3.14448)"/><path class="cls-2" d="M452.41521,574.2774v-43.5459h-.22363l-11.74023,43.5459h-6.01953L422.839,530.73151h-.22266v43.5459h-6.168V521.66608H426.258l11.2207,41.76172h.29688l10.998-41.76172h10.25488V574.2774Z" transform="translate(-0.38129 -3.14448)"/><path class="cls-2" d="M480.20428,575.54108a17.42275,17.42275,0,0,1-13.375-6.09375l3.9375-4.83008a12.26618,12.26618,0,0,0,9.4375,4.75586c4.38477,0,7.6543-3.12109,7.6543-8.69434,0-5.35059-3.86426-8.02539-8.5459-10.40332-5.64746-2.82422-10.626-6.46484-10.626-14.93652,0-10.18066,6.98535-14.93652,13.9707-14.93652,4.97852,0,9.13965,1.709,11.81445,5.05273l-4.0127,4.75586a9.12285,9.12285,0,0,0-7.5791-3.71484c-3.79,0-7.72852,2.52637-7.72852,8.69434,0,5.27539,3.56738,7.65332,7.877,9.88281,5.499,2.75,11.36914,6.61426,11.36914,15.2334C494.39763,569.89264,488.15545,575.54108,480.20428,575.54108Z" transform="translate(-0.38129 -3.14448)"/></g></svg>