<svg xmlns="http://www.w3.org/2000/svg" viewBox="0 0 550 550"><defs><style>.cls-1{fill:#fff;}.cls-2{fill:#404041;}.cls-3{fill:#00a69c;}.cls-4{fill:#0e4c45;}.cls-5{fill:#a2bd61;}.cls-6{fill:#f1f1f2;}.cls-7{fill:#7e923c;}.cls-8{fill:#e6e7e8;}</style></defs><title>globe-default</title><g id="globe-default"><rect id="sizing-bg" class="cls-1" width="550" height="550"/><path class="cls-1" d="M274.42315,453.1168a218.1233,218.1233,0,0,1-154.237-372.362,218.12437,218.12437,0,1,1,308.47491,308.474,216.694,216.694,0,0,1-154.23792,63.888"/><path class="cls-2" d="M274.42315,17.86769A217.18252,217.18252,0,0,1,358.938,435.0547,217.18131,217.18131,0,0,1,189.90911,34.9297a215.75608,215.75608,0,0,1,84.514-17.062m0-2c-121.018,0-219.126,98.104-219.126,219.123,0,121.02,98.108,219.12595,219.126,219.12595,121.0199,0,219.126-98.106,219.126-219.12595,0-121.019-98.10608-219.123-219.126-219.123"/><path class="cls-2" d="M405.7171,103.60994s-13.21912-16.50494-15.557-23.516c-2.333-7.008-32.71008,26.009-36.21606,25.854-3.50293-.15,0,3.354-5.84094,8.028-5.84106,4.673-54.912,28.107-54.912,28.107L273.839,130.334,260.48,142.083l-78.097,25.132-6.237,1.135-7.678-10.827h.71a1.95551,1.95551,0,0,0,1.716-1.071,1.93356,1.93356,0,0,0-.143-2.003l-6.546-9.261a1.97286,1.97286,0,0,0,.873-.845,1.94138,1.94138,0,0,0-.134-2.008l-5.923-8.361a1.91546,1.91546,0,0,0-3.137,0l-5.927,8.361a1.93215,1.93215,0,0,0-.127,2.008,1.9041,1.9041,0,0,0,.868.845l-6.541,9.247a1.95869,1.95869,0,0,0,1.566,3.088h.714l-8.546,12.051a1.951,1.951,0,0,0,1.569,3.064h13.123l-15.345,2.794v40.188L244.121,278.707l191.606-88.79Z"/><path class="cls-3" d="M96.86358,233.564c5.061,30.539,88.396,43.388,186.13489,28.689,97.74011-14.697,172.87708-51.371,167.82007-81.912-5.064-30.539-88.395-43.383-186.136-28.685-97.739,14.695-172.875,51.368-167.819,81.908"/><path class="cls-4" d="M144.54229,246.48491c-12.296-8.142-6.56006-17.78494,3.084-25.927,9.307-7.848,10.288-5.986,22.14-8.775,15.66-3.683,19.37988-8.111,30.89795-16.567,14.859-10.9,17.636-18.924,38.394-18.315,15.26294.451,18.35193,6.979,33.14795,3.294q8.031-3.807,16.058-7.61,13.446-7.09644,25.525.38c13.26794-.264,34.089-3.883,50.175-2.575,4.116,18.301,95.93494,3.846,91.907,7.43005-31.175,27.717-227.484,135.519-272.741,109.007a105.30738,105.30738,0,0,1-38.588-40.342"/><path class="cls-5" d="M498.81475,213.26521s-35.05-115.663-44.39612-118.001c-9.344-2.336-8.17493-32.711-19.86194-32.711-11.684,0-33.879,59.583-33.879,59.583s-9.34692,46.732-18.69495,42.061c-9.344-4.674-24.532,17.524-19.86,31.544,4.671,14.019-28.03906,38.552-45.56506,21.028-17.52295-17.524-37.38794,11.684-42.058,7.011-4.673-4.675-15.18994,4.673-19.86194,14.538-4.676,9.868-12.8501-.52-17.525-.52-4.672,0-15.189,4.675-40.89-13.984-25.706-18.653-22.198-1.201-25.706-.104-3.501,1.103-10.513-6.941-14.018-1.097-3.503,5.84-19.861-12.853-17.522-25.706,2.279-12.554-5.468-27.342-11.277-48.713-.235-12.178-3.172-23.339-11.78-27.882,1.519.27106,3.044.387,4.533.73206-5.98-21.922-21.606-41.462-34.456-59.812,2.154,26.483-13.10205,42.68-20.859,66.468,4.193.14105,8.918-.042,13.06.717-7.106,3.723-2.46,5.549-4.288,11.911-3.265,11.369-5.883,22.419-10.146,33.697-6.279,1.916-12.027,20.127-12.482,28.401a67.05747,67.05747,0,0,0,4.096,26.592,36.94523,36.94523,0,0,0-.665,7.317c0,121.017,98.112,219.124,219.12592,219.124,113.663,0,207.106-86.543,218.04907-197.325,6.03491-26.182,6.927-44.869,6.927-44.869"/><path class="cls-6" d="M216.7503,183.46052c-11.894,3.311-31.132-3.707-39.314,7.44806,5.398,9.013,53.576,2.693,64.55194,2.486-11.54395-.378-20.114,3.638-31.015,5.759-15.34692,2.986-32.99493,3.566-48.88092,3.073-10.549-12.183,20.087-18.107,27.05792-19.998,13.33105-3.616,78.69006-27.617,84.271-16.224-17.48,8.195-33.06494,10.24005-52.324,13.293-5.608.887-7.941.299-12.124,2.581"/><path class="cls-7" d="M424.33331,90.939c.45,23.325,3.17688,48.41705,13.74,45.96906,4.65393-1.08,11.079.507,13.193,5.368,7.318,16.821,6.429,33.393,2.739,51.061-.97009,4.627-4.739,7.052-8.864,8.101.772,13.132,3.464,25.331-3.224,38.304a11.56351,11.56351,0,0,1-10.08606,5.789c-1.10193-.014-2.179-.058-3.24792-.117-3.64209,19.891-8.53809,38.215-27.375,50.318-29.57507,19.009-69.39209,33.868-104.896,32.821-18.687-.549-38.13709-4.127-53.79-14.923-4.98-3.435-14.616-12.904-21.163-12.158-6.97107.798-12.963,5.112-20.076,5.729-27.972,2.425-34.77295-24.248-49.602-41.098-7.654,2.648-16.59595-1.144-16.601-10.446-.004-18.578,1.805-43.949-7.744-61.514-3.991,1.537-8.066,2.856-12.062,4.617-4.454,1.963-10.662,2.532-14.157-1.823-9.706-12.103-14.136-25.918-17.58-40.452a204.03456,204.03456,0,0,0-13.643,73.575c0,112.957,91.568,204.529,204.529,204.529,112.96191,0,204.53-91.572,204.53-204.529a203.78832,203.78832,0,0,0-54.62-139.121"/><path class="cls-8" d="M222.95928,48.47615s-76.547,17.864-90.346,54.313c-7.523,19.867,35.825-18.484,90.346-54.313"/><g id="caldera_forms_text" data-name="caldera forms text"><path class="cls-5" d="M74.69659,479.9531c7.13086,0,11.35645,2.90527,13.86523,6.00879l-7.65869,10.89355c-1.12256-1.51855-2.311-2.9043-4.88574-2.9043-3.69775,0-5.94238,4.48926-5.94238,10.69531,0,6.07422,2.24463,10.56445,6.0083,10.56445a5.87194,5.87194,0,0,0,4.62158-2.83887l7.98926,10.56348c-2.707,3.43359-6.73486,6.4043-13.99756,6.4043-11.22412,0-19.34521-9.96973-19.34521-24.69336C55.35137,489.65916,63.47247,479.9531,74.69659,479.9531Z"/><path class="cls-5" d="M111.34356,521.5488h-8.05469l-1.25439,6.4707H87.70684l11.02637-46.74512H116.494l11.0918,46.74512h-14.9873Zm-6.47021-11.0918h4.75391l-2.17871-15.18555h-.26416Z"/><path class="cls-5" d="M130.7586,481.27439h14.45947v33.54h12.0166v13.20508H130.7586Z"/><path class="cls-5" d="M161.46319,528.01951V481.27439H176.5169c15.31787,0,20.93018,9.77148,20.93018,23.50488,0,13.46875-5.6123,23.24023-20.93018,23.24023Zm15.31787-34.20117h-.8584v21.65625h.8584c3.82959,0,6.20654-4.09375,6.20654-10.69531C182.98761,497.84666,180.61065,493.81834,176.78106,493.81834Z"/><path class="cls-5" d="M202.46807,481.27439h24.957v12.61035H216.13555v4.6875h10.23389v11.68652H216.13555v4.95215H228.2835v12.80859H202.46807Z"/><path class="cls-5" d="M248.22589,511.249h-1.18848v16.77051H233.304V481.27439h17.36523c10.82813,0,15.7793,5.80957,15.7793,15.18555,0,6.33789-3.03711,10.2998-5.61133,11.62012l7.46,19.93945H253.178Zm-1.18848-18.02441v8.18652h1.18848a3.75249,3.75249,0,0,0,4.02734-4.09277c0-3.5-2.24414-4.09375-3.63086-4.09375Z"/><path class="cls-5" d="M291.67315,521.5488h-8.05469l-1.25488,6.4707H268.03643l11.02637-46.74512h17.75977l11.09277,46.74512H292.928Zm-6.4707-11.0918h4.75391l-2.17871-15.18555H287.514Z"/><path class="cls-2" d="M331.6546,486.26951V501.414h12.81934v5.18066H331.6546v21.25488h-5.91211V480.82322H345.47v5.44629Z"/><path class="cls-2" d="M366.72393,528.97849c-10.09668,0-16.14062-9.96289-16.14062-24.709,0-14.74512,5.84473-24.5752,16.14063-24.5752,10.0293,0,16.07324,9.83008,16.07324,24.5752C382.79718,519.0156,376.75323,528.97849,366.72393,528.97849Zm0-43.9043c-6.57617,0-9.83105,8.502-9.83105,19.19531,0,10.69434,3.25488,19.19629,9.83105,19.19629,6.44238,0,9.76367-8.502,9.76367-19.19629C376.48761,493.57615,373.09991,485.07419,366.72393,485.07419Z"/><path class="cls-2" d="M410.35968,527.84959l-7.9707-20.98926h-5.44629v20.98926H391.097V480.82322h12.15527c6.8418,0,12.62012,3.52051,12.62012,12.81934,0,7.63867-4.31738,11.292-7.9043,12.08887l8.76758,22.11816Zm-8.03711-41.97852h-5.37988v16.33984h5.5127c4.5166,0,7.50586-2.98926,7.50586-8.30273C409.96124,487.59861,406.1087,485.87107,402.32257,485.87107Z"/><path class="cls-2" d="M455.92218,527.84959V488.92673H455.723l-10.49512,38.92285H439.848l-10.36133-38.92285h-.19922v38.92285h-5.51367V480.82322h8.76758l10.03027,37.3291h.26563l9.83008-37.3291h9.166v47.02637Z"/><path class="cls-2" d="M480.75909,528.97849A15.57292,15.57292,0,0,1,468.803,523.5322l3.52051-4.31738a10.96311,10.96311,0,0,0,8.43555,4.251c3.91895,0,6.8418-2.79,6.8418-7.77148,0-4.78223-3.4541-7.17383-7.63867-9.29883-5.04785-2.52441-9.498-5.77832-9.498-13.35059,0-9.09961,6.24316-13.35059,12.4873-13.35059,4.4502,0,8.16992,1.52734,10.56055,4.5166l-3.58691,4.251a8.15427,8.15427,0,0,0-6.77441-3.32129c-3.3877,0-6.9082,2.25781-6.9082,7.77148,0,4.71582,3.18848,6.84082,7.041,8.834,4.915,2.457,10.16211,5.91113,10.16211,13.61621C493.44561,523.93064,487.86651,528.97849,480.75909,528.97849Z"/></g></g></svg>