<svg id="caldera-globe" xmlns="http://www.w3.org/2000/svg" viewBox="0 0 499.23742 593.71104"><defs><style>.cls-1{fill:#404041;}.cls-2{fill:#a2bd61;}.cls-3{fill:#fff;}.cls-4{fill:#00a69c;}.cls-5{fill:#0e4c45;}.cls-6{fill:#f1f1f2;}.cls-7{fill:#7e923c;}.cls-8{fill:#e6e7e8;}</style></defs><title>globe-with-calderawp</title><path class="cls-1" d="M69.84332,594.52151a17.6557,17.6557,0,0,1-9.332,2.334,18.57806,18.57806,0,0,1-9.699-2.563,21.78582,21.78582,0,0,1-7.229-7.136,36.208,36.208,0,0,1-4.483-10.751,55.18671,55.18671,0,0,1-1.555-13.496,54.21449,54.21449,0,0,1,1.601-13.541,35.55111,35.55111,0,0,1,4.575-10.751,22.54913,22.54913,0,0,1,7.228-7.092,18.18,18.18,0,0,1,9.562-2.562,21.16726,21.16726,0,0,1,9.058,1.921,16.48628,16.48628,0,0,1,6.771,5.857l-5.124,5.581a13.38341,13.38341,0,0,0-4.667-4.346,11.86007,11.86007,0,0,0-5.673-1.419,10.367,10.367,0,0,0-6.496,2.105,16.02582,16.02582,0,0,0-4.529,5.672,32.08181,32.08181,0,0,0-2.699,8.373,54.40157,54.40157,0,0,0-.915,10.202,53.66086,53.66086,0,0,0,.915,10.156,31.66023,31.66023,0,0,0,2.745,8.372,16.09381,16.09381,0,0,0,4.621,5.719,10.54918,10.54918,0,0,0,6.542,2.104,10.16723,10.16723,0,0,0,5.993-1.83,14.238,14.238,0,0,0,4.163-4.483l4.94,5.398a19.35647,19.35647,0,0,1-6.313,6.176" transform="translate(-0.38129 -3.14448)"/><path class="cls-1" d="M115.50079,595.30012l-3.66-15.189H93.0838l-3.751,15.189h-8.326l16.28595-64.781h10.888l15.92,64.781Zm-12.718-57.095h-.366l-8.236,35.409h16.562Z" transform="translate(-0.38129 -3.14448)"/><polygon class="cls-1" points="129.759 592.155 129.759 527.375 137.994 527.375 137.994 584.468 156.293 584.468 156.293 592.155 129.759 592.155"/><path class="cls-1" d="M203.42791,563.001q0,15.738-6.405,24.018-6.40347,8.28149-17.933,8.281H164.267V530.52h14.914q11.529,0,17.888,8.326,6.35843,8.32654,6.35895,24.155m-8.23395,0a44.93243,44.93243,0,0,0-1.231-11.163,24.76785,24.76785,0,0,0-3.372-7.868,14.26922,14.26922,0,0,0-5.103-4.667,13.43846,13.43846,0,0,0-6.334-1.556h-6.651v50.324h6.651a13.41359,13.41359,0,0,0,6.334-1.555,14.2386,14.2386,0,0,0,5.103-4.666,24.77818,24.77818,0,0,0,3.372-7.824,43.92817,43.92817,0,0,0,1.231-11.025" transform="translate(-0.38129 -3.14448)"/><polygon class="cls-1" points="210.823 592.155 210.823 527.375 238.09 527.375 238.09 534.694 218.783 534.694 218.783 555.098 236.808 555.098 236.808 561.961 218.783 561.961 218.783 584.744 239.005 584.744 239.005 592.155 210.823 592.155"/><path class="cls-1" d="M276.71661,595.30012l-10.98-28.913h-7.503v28.913h-8.051v-64.781h16.788a23.15552,23.15552,0,0,1,6.744.96,14.77589,14.77589,0,0,1,5.55,3.066,14.42678,14.42678,0,0,1,3.761,5.49,21.60094,21.60094,0,0,1,1.377,8.144,20.86828,20.86828,0,0,1-1.019,6.862,17.0536,17.0536,0,0,1-2.64,4.986,13.65321,13.65321,0,0,1-3.555,3.248,11.57147,11.57147,0,0,1-3.76605,1.556l12.17,30.469Zm-.549-46.803a13.76646,13.76646,0,0,0-.915-5.42,9.42043,9.42043,0,0,0-2.379-3.398,8.22742,8.22742,0,0,0-3.386-1.791,14.99265,14.99265,0,0,0-3.842-.506h-7.412v22.599h7.595a9.87228,9.87228,0,0,0,7.503-2.985q2.835-2.985,2.83606-8.499" transform="translate(-0.38129 -3.14448)"/><path class="cls-1" d="M325.118,595.30012l-3.66-15.189H302.701l-3.751,15.189h-8.326l16.28595-64.781h10.887l15.921,64.781Zm-12.718-57.095h-.366l-8.237,35.409H320.36Z" transform="translate(-0.38129 -3.14448)"/><polygon class="cls-2" points="367.832 592.155 348.252 592.155 336.266 527.375 356.486 527.375 360.878 565.255 361.336 565.255 366.002 527.375 383.844 527.375 388.877 565.255 389.151 565.255 393.451 527.375 412.758 527.375 400.588 592.155 381.008 592.155 374.512 556.104 374.237 556.104 367.832 592.155"/><path class="cls-2" d="M439.48986,574.98713v20.313h-19.397v-64.781h23.149a28.846,28.846,0,0,1,7.777,1.098,19.47269,19.47269,0,0,1,7.091,3.66,18.78969,18.78969,0,0,1,5.124,6.771,24.83311,24.83311,0,0,1,1.967,10.522,25.44094,25.44094,0,0,1-1.876,10.293,19.953,19.953,0,0,1-4.895,6.954,18.82173,18.82173,0,0,1-6.862,3.935,25.29057,25.29057,0,0,1-7.777,1.235Zm0-27.907v11.986h2.379a4.814,4.814,0,0,0,3.522-1.66,6.23161,6.23161,0,0,0,1.60205-4.517q0-3.135-1.60205-4.472a5.37228,5.37228,0,0,0-3.522-1.337Z" transform="translate(-0.38129 -3.14448)"/><path class="cls-3" d="M249.358,490.92091a243.38828,243.38828,0,0,1-172.103-415.49,243.389,243.389,0,1,1,344.206,344.202,241.796,241.796,0,0,1-172.103,71.288" transform="translate(-0.38129 -3.14448)"/><path class="cls-1" d="M249.358,5.14448a242.45213,242.45213,0,0,1,94.348,465.729A242.45156,242.45156,0,0,1,155.01,24.19154,240.86769,240.86769,0,0,1,249.358,5.14448m0-2c-134.972,0-244.39,109.416-244.39,244.387s109.418,244.389,244.39,244.389,244.39-109.418,244.39-244.389S384.33,3.14448,249.358,3.14448" transform="translate(-0.38129 -3.14448)"/><path class="cls-1" d="M395.78875,101.00294s-14.742-18.408-17.35-26.227c-2.602-7.817-36.482,29.007-40.392,28.834-3.907-.16705,0,3.742-6.515,8.955-6.514,5.21-61.244,31.346-61.244,31.346l-21.582-13.103-14.899,13.103-87.101,28.03-6.956,1.267-8.564-12.076h.792a2.18078,2.18078,0,0,0,1.914-1.194,2.15865,2.15865,0,0,0-.159-2.235l-7.3-10.328a2.20148,2.20148,0,0,0,.973-.942,2.17069,2.17069,0,0,0-.149-2.241l-6.608-9.324a2.13477,2.13477,0,0,0-3.497,0l-6.611,9.324a2.15889,2.15889,0,0,0-.14105,2.241,2.12485,2.12485,0,0,0,.969.942l-7.296,10.314a2.18361,2.18361,0,0,0,1.746,3.443h.796l-9.531,13.44a2.17652,2.17652,0,0,0,1.751,3.418h14.636l-17.114,3.116v44.821l119.205,70.36,213.696-99.027Z" transform="translate(-0.38129 -3.14448)"/><path class="cls-4" d="M51.32586,245.93952c5.645,34.061,98.588,48.39,207.59595,31.998,109.00806-16.393,192.80707-57.294,187.16907-91.356-5.649-34.061-98.588-48.386-207.596-31.994-109.00806,16.39-192.808,57.291-187.169,91.352" transform="translate(-0.38129 -3.14448)"/><path class="cls-5" d="M104.50152,260.35059c-13.713-9.08-7.315-19.836,3.43994-28.916,10.379-8.754,11.474-6.677,24.69305-9.787,17.466-4.108,21.614-9.04706,34.461-18.47705,16.572-12.157,19.668-21.106,42.819-20.426,17.024.502,20.469,7.783,36.971,3.673q8.955-4.24649,17.908-8.488,14.99551-7.91254,28.468.426c14.798-.296,38.019-4.332,55.96-2.873,4.591,20.411,106.996,4.289,102.503,8.286-34.769,30.913-253.711,151.143-304.186,121.575a117.44182,117.44182,0,0,1-43.037-44.993" transform="translate(-0.38129 -3.14448)"/><path class="cls-2" d="M499.61871,223.30079s-39.09-128.998-49.515-131.605c-10.422-2.606-9.117-36.483-22.15-36.483-13.032,0-37.785,66.452-37.785,66.452s-10.426,52.12-20.851,46.91c-10.421-5.212-27.361,19.545-22.15,35.181s-31.272,42.998-50.81995,23.453c-19.54205-19.544-41.696,13.031-46.906,7.819-5.211-5.213-16.94,5.212-22.15,16.214-5.215,11.006-14.332-.579-19.547-.579-5.21,0-16.939,5.213-45.604-15.59595-28.668-20.804-24.757-1.341-28.668-.117-3.907,1.23-11.725-7.741-15.636-1.224-3.90594,6.514-22.15-14.334-19.542-28.669,2.543-14.001-6.098-30.494-12.576-54.329-.263-13.582-3.538-26.03094-13.138-31.097,1.692.303,3.394.432,5.054.817-6.668-24.45-24.096-46.242-38.428-66.709,2.402,29.538-14.612,47.602-23.264,74.131,4.676.159,9.947-.047,14.566.801-7.925,4.151-2.744,6.189-4.783,13.284-3.641,12.679-6.56,25.004-11.314,37.581-7.004,2.137-13.415,22.449-13.923,31.677a74.81541,74.81541,0,0,0,4.568,29.657,41.2405,41.2405,0,0,0-.741,8.161c0,134.969,109.423,244.387,244.39,244.387,126.767,0,230.983-96.52,243.187-220.075,6.732-29.201,7.726-50.04205,7.726-50.04205" transform="translate(-0.38129 -3.14448)"/><path class="cls-6" d="M185.03576,190.05958c-13.26605,3.692-34.722-4.13495-43.848,8.307,6.021,10.052,59.754,3.00305,71.995,2.772-12.875-.421-22.433,4.058-34.591,6.424-17.117,3.329-36.799,3.976-54.516,3.427-11.766-13.587,22.401-20.195,30.178-22.304,14.867-4.032,87.761-30.801,93.986-18.095-19.495,9.14105-36.877,11.422-58.356,14.826-6.254.99-8.857.33295-13.523,2.878" transform="translate(-0.38129 -3.14448)"/><path class="cls-7" d="M416.55041,86.8711c.503,26.015,3.54395,53.999,15.324,51.269,5.192-1.205,12.358.565,14.714,5.987,8.162,18.761,7.171,37.243,3.055,56.949-1.081,5.159-5.285,7.864-9.886,9.033.861,14.647,3.865,28.252-3.595,42.721-2.044,3.977-6.868,6.517-11.249,6.456-1.229-.016-2.43-.064-3.623-.13-4.06,22.185-9.521,42.621-30.531,56.119-32.984,21.2-77.392,37.773-116.988,36.606-20.842-.613-42.535-4.603-59.99194-16.644-5.55505-3.832-16.301-14.392-23.603-13.559-7.776.889-14.458,5.7-22.392,6.388-31.197,2.705-38.782-27.044-55.321-45.836-8.535,2.953-18.509-1.276-18.514-11.65-.004-20.721,2.012-49.017-8.637-68.605-4.451,1.713-8.996,3.184-13.451,5.149-4.969,2.188-11.893,2.822-15.79-2.034-10.826-13.499-15.766-28.906-19.608-45.11505a227.56879,227.56879,0,0,0-15.21695,82.057c0,125.981,102.12595,228.11,228.112,228.11,125.984,0,228.11-102.129,228.11-228.11a227.27975,227.27975,0,0,0-60.918-155.161" transform="translate(-0.38129 -3.14448)"/><path class="cls-8" d="M191.95965,39.5127s-85.372,19.924-100.762,60.575c-8.39,22.157,39.956-20.615,100.762-60.575" transform="translate(-0.38129 -3.14448)"/></svg>